<svg width="24" height="24" viewBox="0 0 24 24" fill="none" xmlns="http://www.w3.org/2000/svg">
  <!-- 背景（可选，可删除） -->
  <rect x="2" y="2" width="20" height="20" rx="4" fill="#F8FAFC" />
  
  <!-- 书本（高校知识元素） -->
  <path d="M5 16 L19 16 L18 20 L6 20 L5 16 Z" fill="#E2E8F0" stroke="#94A3B8" stroke-width="1" />
  <path d="M5 18 L18 18" stroke="#94A3B8" stroke-width="1" />
  
  <!-- 折线图（数据分析核心元素） -->
  <g>
    <!-- 基线 -->
    <path d="M6 15 H18" stroke="#64748B" stroke-width="1" stroke-linecap="round" />
    <!-- 数据点 + 折线 -->
    <path d="M6 15 L9 12 L12 14 L15 10 L18 13" stroke="#3B82F6" stroke-width="1.2" stroke-linecap="round" stroke-linejoin="round" />
    <circle cx="6" cy="15" r="0.8" fill="#3B82F6" />
    <circle cx="9" cy="12" r="0.8" fill="#3B82F6" />
    <circle cx="12" cy="14" r="0.8" fill="#3B82F6" />
    <circle cx="15" cy="10" r="0.8" fill="#3B82F6" />
    <circle cx="18" cy="13" r="0.8" fill="#3B82F6" />
  </g>
  
  <!-- 毕业帽（高校标志性元素） -->
  <path d="M8 6 L12 3 L16 6 L8 6 Z" fill="#F97316" stroke="#EA580C" stroke-width="1" stroke-linejoin="round" />
  <path d="M6 6 L18 6 L17 8 L7 8 L6 6 Z" fill="#FDBA74" stroke="#EA580C" stroke-width="1" stroke-linejoin="round" />
</svg>
